<svg width="2137" xmlns="http://www.w3.org/2000/svg" height="572" id="screenshot-36432b2b-63e8-80ad-8008-bc959ff52ebf" viewBox="0 0 2137 572" xmlns:xlink="http://www.w3.org/1999/xlink" fill="none" version="1.1"><g id="shape-36432b2b-63e8-80ad-8008-bc959ff52ebf"><defs><clipPath id="frame-clip-36432b2b-63e8-80ad-8008-bc959ff52ebf-render-1" class="frame-clip frame-clip-def"><rect rx="0" ry="0" x="0" y="0" width="2136.999552845871" height="572" transform="matrix(1.000000, 0.000000, 0.000000, 1.000000, 0.000000, 0.000000)"/></clipPath></defs><g class="frame-container-wrapper"><g class="frame-container-blur"><g class="frame-container-shadows"><g clip-path="url(#frame-clip-36432b2b-63e8-80ad-8008-bc959ff52ebf-render-1)" fill="none"><g class="fills" id="fills-36432b2b-63e8-80ad-8008-bc959ff52ebf"><rect width="2136.999552845871" height="572" class="frame-background" x="0" transform="matrix(1.000000, 0.000000, 0.000000, 1.000000, 0.000000, 0.000000)" style="fill: rgb(255, 255, 255); fill-opacity: 1;" ry="0" rx="0" y="0"/></g><g class="frame-children"><g id="shape-36432b2b-63e8-80ad-8008-bc95ca69c782"><g class="fills" id="fills-36432b2b-63e8-80ad-8008-bc95ca69c782"><rect rx="0" ry="0" x="126.34860932685979" y="93.49765852477753" transform="matrix(0.974370, -0.224951, 0.224951, 0.974370, -62.143559, 41.568378)" width="50.00012190668485" height="399.99999628010323" style="fill: rgb(74, 74, 74); fill-opacity: 1;"/></g></g><g id="shape-36432b2b-63e8-80ad-8008-bc95ff1a734f"><g class="fills" id="fills-36432b2b-63e8-80ad-8008-bc95ff1a734f"><rect rx="25.000068378212518" ry="25.000068378212518" x="225.22846373388802" y="166.38465585022277" transform="matrix(0.997564, 0.069756, -0.069757, 0.997564, 22.505039, -16.690382)" width="50.000136756425036" height="295.00000178036885" style="fill: rgb(102, 205, 255); fill-opacity: 1;"/></g></g><g id="shape-36432b2b-63e8-80ad-8008-bc962f10da43"><g class="fills" id="fills-36432b2b-63e8-80ad-8008-bc962f10da43"><rect rx="24.999918263447853" ry="24.999918263447853" x="412.229179946567" y="166.38461846108225" transform="matrix(0.997564, 0.069756, -0.069757, 0.997564, 22.960556, -29.734830)" width="49.999836526895706" height="294.99998696877947" style="fill: rgb(102, 205, 255); fill-opacity: 1;"/></g></g><g id="shape-36432b2b-63e8-80ad-8008-bc975ff1e2f9"><g class="fills" id="fills-36432b2b-63e8-80ad-8008-bc975ff1e2f9"><rect rx="24.999572279847143" ry="24.999572279847143" x="1357.5120717157815" y="91.11367717992175" transform="matrix(0.981627, 0.190809, -0.190809, 0.981627, 80.756908, -258.465145)" width="49.99914455969429" height="398.0002280870333" style="fill: rgb(147, 174, 255); fill-opacity: 1;"/></g></g><g id="shape-36432b2b-63e8-80ad-8008-bc9667338907"><g class="fills" id="fills-36432b2b-63e8-80ad-8008-bc9667338907"><rect rx="24.991355217659475" ry="24.991355217659475" x="753.8937471390968" y="43.171363726083655" transform="matrix(0.601815, -0.798636, 0.798635, 0.601815, 181.816656, 686.025347)" width="49.98271043531895" height="235.01506931321796" style="fill: rgb(105, 85, 255); fill-opacity: 1;"/></g></g><g id="shape-36432b2b-63e8-80ad-8008-bc97372c40e9"><g class="fills" id="fills-36432b2b-63e8-80ad-8008-bc97372c40e9"><rect rx="24.99993305928956" ry="24.99993305928956" x="1128.8845481731996" y="268.1792664643135" transform="matrix(0.601815, -0.798636, 0.798635, 0.601815, 151.442678, 1075.104951)" width="49.99986611857912" height="234.9998224049757" style="fill: rgb(100, 213, 255); fill-opacity: 1;"/></g></g><g id="shape-36432b2b-63e8-80ad-8008-bc973b682bb6"><g class="fills" id="fills-36432b2b-63e8-80ad-8008-bc973b682bb6"><rect rx="24.9997782615269" ry="24.9997782615269" x="1121.9812328091348" y="85.54078693838778" transform="matrix(-0.615662, -0.788011, 0.788011, -0.615662, 1693.135327, 1231.877596)" width="49.9995565230538" height="234.99896180350265" style="fill: rgb(100, 213, 255); fill-opacity: 1;"/></g></g><g id="shape-36432b2b-63e8-80ad-8008-bc96819658c7"><g class="fills" id="fills-36432b2b-63e8-80ad-8008-bc96819658c7"><rect rx="25.00649530919918" ry="25.00649530919918" x="673.8783019540747" y="173.18485162978618" transform="matrix(0.601815, -0.798636, 0.798636, 0.601815, 46.139033, 673.898379)" width="50.01299061839836" height="234.9883422052992" style="fill: rgb(105, 85, 255); fill-opacity: 1;"/></g></g><g id="shape-36432b2b-63e8-80ad-8008-bc968a67e87d"><g class="fills" id="fills-36432b2b-63e8-80ad-8008-bc968a67e87d"><rect rx="25.000058178345398" ry="25.000058178345398" x="589.884980901245" y="305.1792068319719" transform="matrix(0.601815, -0.798636, 0.798636, 0.601815, -92.728612, 659.373712)" width="50.000116356690796" height="235.00029812995558" style="fill: rgb(105, 85, 255); fill-opacity: 1;"/></g></g><g id="shape-36432b2b-63e8-80ad-8008-bc95d6b27208"><g class="fills" id="fills-36432b2b-63e8-80ad-8008-bc95d6b27208"><rect rx="0" ry="0" x="314.3497520925639" y="93.49781062576903" transform="matrix(0.974370, -0.224951, 0.224951, 0.974370, -57.325131, 83.859443)" width="50.00009516834689" height="399.9999669193139" style="fill: rgb(74, 74, 74); fill-opacity: 1;"/></g></g><g id="shape-36432b2b-63e8-80ad-8008-bc976a03e49f"><g class="fills" id="fills-36432b2b-63e8-80ad-8008-bc976a03e49f"><rect rx="0" ry="0" x="1511.3497397685906" y="100.49791906096948" transform="matrix(0.974370, -0.224951, 0.224951, 0.974370, -28.220778, 353.305276)" width="49.999707253428824" height="400.0000072647283" style="fill: rgb(131, 131, 131); fill-opacity: 1;"/></g></g><g id="shape-36432b2b-63e8-80ad-8008-bc977afb0bcd"><g class="fills" id="fills-36432b2b-63e8-80ad-8008-bc977afb0bcd"><rect rx="24.999396398923636" ry="24.999396398923636" x="1690.893134947425" y="91.07731120971789" transform="matrix(0.981627, 0.190809, -0.190809, 0.981627, 87.256669, -322.041158)" width="49.99879279784727" height="401.99959987487114" style="fill: rgb(147, 174, 255); fill-opacity: 1;"/></g></g><g id="shape-36432b2b-63e8-80ad-8008-bc97861206aa"><g class="fills" id="fills-36432b2b-63e8-80ad-8008-bc97861206aa"><rect rx="25.00029612076014" ry="25.00029612076014" x="1939.4159383678489" y="122.12327834258463" transform="matrix(0.981627, 0.190809, -0.190809, 0.981627, 97.269620, -368.937178)" width="50.00059224152028" height="397.00008583609497" style="fill: rgb(147, 174, 255); fill-opacity: 1;"/></g></g><g id="shape-36432b2b-63e8-80ad-8008-bc977afb0bce"><g class="fills" id="fills-36432b2b-63e8-80ad-8008-bc977afb0bce"><rect rx="0" ry="0" x="1817.2238732697297" y="154.6512820263556" transform="matrix(0.974370, -0.224951, 0.224951, 0.974370, -22.440189, 422.347224)" width="50.00563897904249" height="309.99965575156875" style="fill: rgb(131, 131, 131); fill-opacity: 1;"/></g></g><g id="shape-36432b2b-63e8-80ad-8008-bc972c690648"><g class="fills" id="fills-36432b2b-63e8-80ad-8008-bc972c690648"><rect rx="0" ry="0" x="984.3494551755539" y="112.49778310560168" transform="matrix(0.974370, -0.224951, 0.224951, 0.974370, -44.427148, 235.063585)" width="50.000122942470625" height="400.0000422328492" style="fill: rgb(131, 131, 131); fill-opacity: 1;"/></g></g><g id="shape-36432b2b-63e8-80ad-8008-bc969a100686"><g class="fills" id="fills-36432b2b-63e8-80ad-8008-bc969a100686"><rect rx="0" ry="0" x="632.3138747355197" y="136.11787923049587" transform="matrix(0.981627, 0.190809, -0.190809, 0.981627, 44.822952, -122.268270)" width="49.999980755767865" height="71.00013978595621" style="fill: rgb(142, 142, 142); fill-opacity: 1;"/></g></g><g id="shape-36432b2b-63e8-80ad-8008-bc9771a46793"><g class="fills" id="fills-36432b2b-63e8-80ad-8008-bc9771a46793"><rect rx="0" ry="0" x="1431.3145575932986" y="278.11792020561734" transform="matrix(0.981627, 0.190809, -0.190809, 0.981627, 86.597724, -272.115818)" width="49.99997972064648" height="71.00012888731703" style="fill: rgb(52, 52, 52); fill-opacity: 1;"/></g></g><g id="shape-36432b2b-63e8-80ad-8008-bc96ab6a703b"><g class="fills" id="fills-36432b2b-63e8-80ad-8008-bc96ab6a703b"><rect rx="0" ry="0" x="712.3144375429579" y="387.11811104902677" transform="matrix(0.981627, 0.190809, -0.190809, 0.981627, 94.185871, -132.921491)" width="49.99974559178236" height="70.99996654793131" style="fill: rgb(142, 142, 142); fill-opacity: 1;"/></g></g></g></g></g></g></g></g></svg>